<?xml version="1.0" encoding="UTF-8"?>
<svg width="40px" height="40px" viewBox="0 0 40 40" version="1.1" xmlns="http://www.w3.org/2000/svg" xmlns:xlink="http://www.w3.org/1999/xlink">
    <!-- Generator: Sketch 49.2 (51160) - http://www.bohemiancoding.com/sketch -->
    <title>logo</title>
    <desc>Created with Sketch.</desc>
    <defs></defs>
    <g id="Page-1" stroke="none" stroke-width="1" fill="none" fill-rule="evenodd">
        <g id="四家" transform="translate(-100.000000, -40.000000)">
            <g id="logo" transform="translate(100.000000, 40.000000)">
                <path d="M28.6274654,28.5971187 C28.2897188,29.9938564 27.6504196,31.310212 26.7433744,32.4494742 L21.4852799,39.0537191 C20.8012248,39.9129025 19.5493157,40.0555615 18.6890627,39.3723569 C18.5694166,39.2773351 18.4611307,39.1688614 18.3663473,39.0490816 L13.1387631,32.4428764 C12.8637664,32.0953575 12.6136073,31.7315018 12.3892347,31.3540373 L16.7160827,31.3540373 L19.9312308,35.4170858 L24.0175291,30.2846343 C24.364702,29.84858 24.6515296,29.3726119 24.8735253,28.8695652 L20.2054576,28.8695652 L21.8294164,25.3913043 L26.313524,25.3913043 C27.7690086,25.3913043 29.1819465,24.9009781 30.3238554,23.999615 L34.9688072,20.333133 C35.1843787,20.1629722 35.2210196,19.8504916 35.0506469,19.6351882 C35.026951,19.6052432 34.9998796,19.5781248 34.969968,19.5543693 L30.3223357,15.8632648 C29.3411938,15.0840514 28.1582315,14.6092101 26.9192948,14.4895965 L28.4475741,11.216266 C29.9148142,11.5406904 31.2989766,12.1950123 32.4898706,13.1408088 L39.1023371,18.3923656 C39.9625901,19.0755702 40.1054267,20.3259227 39.4213716,21.1851061 C39.3262315,21.3046035 39.2176228,21.4127547 39.0976939,21.5074203 L32.4832646,26.7285047 C31.3418732,27.6294593 30.0244726,28.2634821 28.6274654,28.5971187 Z M11.2730767,11.253813 C11.6108234,9.85707531 12.2501226,8.54071971 13.1571678,7.40145747 L18.4152622,0.797212583 C19.0993174,-0.0619708263 20.3512264,-0.20462984 21.2114795,0.478574757 C21.3311256,0.573596564 21.4394114,0.682070271 21.5341949,0.801850044 L26.761779,7.40805527 C27.0367757,7.75557423 27.2869348,8.11942985 27.5113074,8.49689441 L23.1844594,8.49689441 L19.9693113,4.43384586 L15.883013,9.56629734 C15.5358401,10.0023517 15.2490125,10.4783198 15.0270169,10.9813665 L19.6950846,10.9813665 L18.0711257,14.4596273 L13.5870182,14.4596273 C12.1315336,14.4596273 10.7185957,14.9499535 9.5766868,15.8513167 L4.93173492,19.5177987 C4.71616344,19.6879595 4.67952258,20.0004401 4.84989526,20.2157435 C4.87359112,20.2456885 4.90066258,20.2728069 4.93057412,20.2965623 L9.57820644,23.9876669 C10.5593484,24.7668803 11.7423107,25.2417216 12.9812474,25.3613352 L11.4529681,28.6346657 C9.98572801,28.3102412 8.60156559,27.6559194 7.41067155,26.7101229 L0.798205034,21.4585661 C-0.0620479739,20.7753615 -0.204884584,19.525009 0.479170536,18.6658256 C0.574310635,18.5463282 0.682919381,18.438177 0.802848268,18.3435114 L7.41727757,13.122427 C8.55866894,12.2214724 9.87606951,11.5874496 11.2730767,11.253813 Z M26.0252635,10.9813665 L17.6734752,28.8695652 L13.8308612,28.8695652 L22.1826495,10.9813665 L26.0252635,10.9813665 Z M10.4663729,7.00621118 L7.51244622,7.00621118 C7.23767738,7.00621118 7.01493322,7.22867839 7.01493322,7.50310559 L7.01493322,10.4452638 C6.60876289,10.6919564 6.21636098,10.9641867 5.84022637,11.2610877 L3.53234226,13.0828107 L3.53234226,5.51552795 C3.53234226,4.41781913 4.42331888,3.52795031 5.52239424,3.52795031 L13.1237397,3.52795031 L11.2870502,5.83484676 C10.9885164,6.20980757 10.7146663,6.60109485 10.4663729,7.00621118 Z M28.613492,5.83484676 L26.7768024,3.52795031 L34.3781479,3.52795031 C35.4772233,3.52795031 36.3681999,4.41781913 36.3681999,5.51552795 L36.3681999,13.0828107 L34.0603158,11.2610877 C33.6841812,10.9641867 33.2917793,10.6919564 32.8856089,10.4452638 L32.8856089,7.50310559 C32.8856089,7.22867839 32.6628648,7.00621118 32.3880959,7.00621118 L29.4341693,7.00621118 C29.1858759,6.60109485 28.9120258,6.20980757 28.613492,5.83484676 Z M10.4663729,32.8447205 C10.7146663,33.2498368 10.9885164,33.6411241 11.2870502,34.0160849 L13.1237397,36.3229814 L5.52239424,36.3229814 C4.42331888,36.3229814 3.53234226,35.4331125 3.53234226,34.3354037 L3.53234226,26.768121 L5.84022637,28.5898439 C6.21636098,28.8867449 6.60876289,29.1589753 7.01493322,29.4056679 L7.01493322,32.3478261 C7.01493322,32.6222533 7.23767738,32.8447205 7.51244622,32.8447205 L10.4663729,32.8447205 Z M29.4341693,32.8447205 L32.3880959,32.8447205 C32.6628648,32.8447205 32.8856089,32.6222533 32.8856089,32.3478261 L32.8856089,29.4056679 C33.2917793,29.1589753 33.6841812,28.8867449 34.0603158,28.5898439 L36.3681999,26.768121 L36.3681999,34.3354037 C36.3681999,35.4331125 35.4772233,36.3229814 34.3781479,36.3229814 L26.7768024,36.3229814 L28.613492,34.0160849 C28.9120258,33.6411241 29.1858759,33.2498368 29.4341693,32.8447205 Z" id="Combined-Shape" fill="#D40A53" fill-rule="nonzero"></path>
            </g>
        </g>
    </g>
</svg>
